<svg xmlns="http://www.w3.org/2000/svg" viewBox="0 0 320 160" fill="none">
  <!-- Generic EV silhouette -->
  <rect x="65" y="95" width="165" height="30" rx="4" fill="#1a212c" stroke="#3a4a5c" stroke-width="1.5"/>
  <rect x="110" y="68" width="100" height="28" rx="4" fill="#1a212c" stroke="#3a4a5c" stroke-width="1.5"/>
  <path d="M225 95 l15 0 q5 0 5 5 l0 28 q0 5 -5 5 l-175 0 q-5 0 -5 -5 l0 -28 q0 -5 5 -5 l15 0" fill="#141922" stroke="#3a4a5c" stroke-width="1.5"/>
  <path d="M65 125 l0 7 q0 3 3 3 l14 0 q3 0 3 -3 l0 -7" fill="#141922" stroke="#3a4a5c" stroke-width="1.5"/>
  <path d="M215 125 l0 7 q0 3 3 3 l14 0 q3 0 3 -3 l0 -7" fill="#141922" stroke="#3a4a5c" stroke-width="1.5"/>
  <circle cx="80" cy="132" r="10" fill="#141922" stroke="#3a4a5c" stroke-width="1.5"/>
  <circle cx="80" cy="132" r="5" fill="#262e3a"/>
  <circle cx="225" cy="132" r="10" fill="#141922" stroke="#3a4a5c" stroke-width="1.5"/>
  <circle cx="225" cy="132" r="5" fill="#262e3a"/>
  <rect x="155" y="72" width="20" height="4" rx="2" fill="#262e3a"/>
  <text x="160" y="42" text-anchor="middle" font-size="10" fill="#3a4a5c" font-family="sans-serif">Electric Vehicle</text>
  <text x="300" y="148" text-anchor="end" font-size="8" fill="#262e3a" font-family="sans-serif">⚡</text>
</svg>
